<?xml version="1.0" encoding="UTF-8"?>
<svg version="1.1" xmlns="http://www.w3.org/2000/svg" width="500" height="500">
<path d="M0 0 C165 0 330 0 500 0 C500 165 500 330 500 500 C335 500 170 500 0 500 C0 335 0 170 0 0 Z " fill="#FEFEFE" transform="translate(0,0)"/>
<path d="M0 0 C0 12.21 0 24.42 0 37 C24.42 37 48.84 37 74 37 C74 61.75 74 86.5 74 112 C49.25 112 24.5 112 -1 112 C0.12728516 120.20230469 0.12728516 120.20230469 1.27734375 128.5703125 C1.98446848 142.52932955 -0.73111381 151.81107075 -9.94924355 162.42155838 C-17.7542496 170.91094066 -26.23355226 178.72142798 -34.78173828 186.44927979 C-39.24634509 190.52716332 -43.59807215 194.72219007 -47.96289062 198.90625 C-54.31484404 204.96607805 -60.70549272 210.97876023 -67.18530273 216.90185547 C-67.86431137 217.52475967 -68.54332001 218.14766388 -69.24290466 218.78944397 C-73.87721904 223 -73.87721904 223 -75 223 C-75 211.12 -75 199.24 -75 187 C-99.75 187 -124.5 187 -150 187 C-150 162.25 -150 137.5 -150 112 C-125.58 112 -101.16 112 -76 112 C-76 99.79 -76 87.58 -76 75 C-71.45902331 69.81031236 -66.94909063 64.80014321 -62.08666992 59.94140625 C-61.43537109 59.28674881 -60.78407227 58.63209137 -60.11303711 57.95759583 C-57.98812044 55.8232811 -55.85954874 53.69266107 -53.73046875 51.5625 C-52.24303534 50.07184996 -50.75567588 48.58112612 -49.26838684 47.09033203 C-46.16612793 43.98211256 -43.06183674 40.87593923 -39.95629883 37.77099609 C-35.96857569 33.78337526 -31.98781558 29.78887907 -28.00872326 25.79264832 C-24.94704335 22.71988867 -21.88086871 19.6516454 -18.81337929 16.58468628 C-17.34249743 15.11262145 -15.87324355 13.63892813 -14.40563011 12.16360474 C-12.3638911 10.11213258 -10.31599216 8.06701669 -8.26635742 6.0234375 C-7.65804581 5.40950638 -7.04973419 4.79557526 -6.42298889 4.16304016 C-2.22832571 0 -2.22832571 0 0 0 Z " fill="#19185E" transform="translate(288,63)"/>
<path d="M0 0 C2.31 0 4.62 0 7 0 C10.62358898 7.73970462 13.53246992 15.69139072 16.42871094 23.72314453 C17.25860093 26.02384432 18.09377431 28.32257633 18.9296875 30.62109375 C19.45863923 32.08061834 19.98729618 33.54024981 20.515625 35 C20.8905307 36.03265991 20.8905307 36.03265991 21.27301025 37.08618164 C23 41.8838684 23 41.8838684 23 43 C21.02 43 19.04 43 17 43 C15.68 40.03 14.36 37.06 13 34 C6.73 33.67 0.46 33.34 -6 33 C-6.99 36.3 -7.98 39.6 -9 43 C-10.98 43 -12.96 43 -15 43 C-12.70301147 33.47331356 -9.29933972 24.44848948 -5.8125 15.3125 C-5.24758319 13.8211391 -4.68312676 12.32960373 -4.11914062 10.83789062 C-2.75138483 7.22323015 -1.37744885 3.61097723 0 0 Z " fill="#0A0A0A" transform="translate(148,315)"/>
<path d="M0 0 C1.98 0 3.96 0 6 0 C6 6.6 6 13.2 6 20 C13.26 20 20.52 20 28 20 C28 13.4 28 6.8 28 0 C29.98 0 31.96 0 34 0 C34 14.52 34 29.04 34 44 C32.02 44 30.04 44 28 44 C28 37.4 28 30.8 28 24 C20.74 24 13.48 24 6 24 C6 30.6 6 37.2 6 44 C4.02 44 2.04 44 0 44 C0 29.48 0 14.96 0 0 Z " fill="#0F0F0F" transform="translate(228,314)"/>
<path d="M0 0 C3.67602134 2.31172476 6.46797446 5.61981798 8.89453125 9.19140625 C8.89453125 9.85140625 8.89453125 10.51140625 8.89453125 11.19140625 C5.64453125 11.50390625 5.64453125 11.50390625 1.89453125 11.19140625 C-0.29296875 8.81640625 -0.29296875 8.81640625 -2.10546875 6.19140625 C-6.51559074 3.42557543 -11.06231562 3.43222191 -16.10546875 4.19140625 C-19.89479627 5.86785462 -22.38900914 7.77765652 -24.2734375 11.49609375 C-26.09794356 17.4064655 -25.86142401 23.83954544 -23.98046875 29.69140625 C-21.54289389 32.94150607 -19.8242593 34.46482492 -16.10546875 36.19140625 C-11.12607464 36.84216407 -6.72033696 36.85053613 -2.04296875 34.94140625 C-0.04348253 33.1354187 0.94361452 31.69836854 1.89453125 29.19140625 C4.20453125 29.19140625 6.51453125 29.19140625 8.89453125 29.19140625 C7.83828305 34.73670932 5.32241721 36.83584627 0.96484375 39.9921875 C-4.50881618 43.1627792 -10.97045567 42.64432668 -17.10546875 42.19140625 C-24.54894901 39.62002216 -28.688337 34.02566974 -32.10546875 27.19140625 C-32.96400093 19.00818182 -32.97960224 12.57279228 -27.75390625 5.9609375 C-20.1882495 -2.16049024 -10.3825305 -4.37715644 0 0 Z " fill="#0E0E0E" transform="translate(209.10546875,315.80859375)"/>
<path d="M0 0 C7.92 0 15.84 0 24 0 C24 1.65 24 3.3 24 5 C18.06 5 12.12 5 6 5 C6 9.95 6 14.9 6 20 C11.28 20 16.56 20 22 20 C22 21.32 22 22.64 22 24 C16.72 24 11.44 24 6 24 C6 28.95 6 33.9 6 39 C11.94 39 17.88 39 24 39 C24 40.65 24 42.3 24 44 C16.08 44 8.16 44 0 44 C0 29.48 0 14.96 0 0 Z " fill="#111111" transform="translate(102,314)"/>
<path d="M0 0 C2.66058731 2.14144833 3.7253011 3.56867416 4.37109375 6.93359375 C4.61139858 10.78575305 4.2437079 12.61819095 2.125 15.9375 C-1.10338568 19.07093316 -3.44929709 19.39218693 -7.9609375 19.359375 C-11.38006698 18.7567698 -12.93189052 16.63213933 -15 14 C-16.41000664 11.17998673 -16.24548451 9.12992745 -16 6 C-12.65874588 -1.35075907 -7.29440013 -2.0344015 0 0 Z " fill="#F6F6F6" transform="translate(302,329)"/>
<path d="M0 0 C9 0 9 0 11.5625 1.125 C13.58743318 3.76621719 13.28748553 5.76578783 13 9 C11.02 9.99 11.02 9.99 9 11 C9.66 12.11375 10.32 13.2275 11 14.375 C13 17.75 13 17.75 13 20 C12.01 20 11.02 20 10 20 C8.58398438 17.31445312 8.58398438 17.31445312 7.16796875 14.62890625 C6.00980201 12.67732013 6.00980201 12.67732013 3 12 C3 14.64 3 17.28 3 20 C2.01 20 1.02 20 0 20 C0 13.4 0 6.8 0 0 Z " fill="#222222" transform="translate(388,328)"/>
<path d="M0 0 C3.44958662 1.72479331 3.93071709 5.83536529 5.125 9.3125 C5.40214844 10.08529297 5.67929688 10.85808594 5.96484375 11.65429688 C7.27662491 15.41193602 8 17.93613641 8 22 C3.05 22 -1.9 22 -7 22 C-5.04910592 14.48905779 -2.76288395 7.25081726 0 0 Z " fill="#ECECEC" transform="translate(151,322)"/>
<path d="M0 0 C2.66058731 2.14144833 3.7253011 3.56867416 4.37109375 6.93359375 C4.61139858 10.78575305 4.2437079 12.61819095 2.125 15.9375 C-1.10338568 19.07093316 -3.44929709 19.39218693 -7.9609375 19.359375 C-11.38006698 18.7567698 -12.93189052 16.63213933 -15 14 C-16.41000664 11.17998673 -16.24548451 9.12992745 -16 6 C-12.65874588 -1.35075907 -7.29440013 -2.0344015 0 0 Z M-10.75 2.5625 C-13.30448431 4.88096788 -13.30448431 4.88096788 -13.5625 8.4375 C-12.91103981 12.56341452 -12.14986805 14.26458827 -9 17 C-5.37720527 17.67927401 -3.74326051 17.46942769 -0.625 15.5 C1.34794084 12.4647064 1.6369409 10.47778973 1.45703125 6.90625 C1.08786423 4.69772384 1.08786423 4.69772384 -1.25 2.5 C-5.0041318 0.45229175 -7.02982165 0.4487623 -10.75 2.5625 Z " fill="#1C1C1C" transform="translate(302,329)"/>
<path d="M0 0 C0.99 0 1.98 0 3 0 C3 2.97 3 5.94 3 9 C6.3 9 9.6 9 13 9 C13 6.03 13 3.06 13 0 C13.99 0 14.98 0 16 0 C16 6.6 16 13.2 16 20 C15.01 20 14.02 20 13 20 C13 17.03 13 14.06 13 11 C9.7 11 6.4 11 3 11 C3 13.97 3 16.94 3 20 C2.01 20 1.02 20 0 20 C0 13.4 0 6.8 0 0 Z " fill="#222222" transform="translate(339,328)"/>
<path d="M0 0 C3.63 0 7.26 0 11 0 C11 0.66 11 1.32 11 2 C8.36 2 5.72 2 3 2 C3 4.31 3 6.62 3 9 C5.31 9 7.62 9 10 9 C10 9.66 10 10.32 10 11 C7.69 11 5.38 11 3 11 C3 13.31 3 15.62 3 18 C5.64 18 8.28 18 11 18 C11 18.66 11 19.32 11 20 C7.37 20 3.74 20 0 20 C0 13.4 0 6.8 0 0 Z " fill="#1C1C1C" transform="translate(366,328)"/>
<path d="M0 0 C4.29 0 8.58 0 13 0 C13 0.66 13 1.32 13 2 C11.35 2 9.7 2 8 2 C8 7.94 8 13.88 8 20 C7.01 20 6.02 20 5 20 C5 14.06 5 8.12 5 2 C3.35 2 1.7 2 0 2 C0 1.34 0 0.68 0 0 Z " fill="#252525" transform="translate(316,328)"/>
<path d="M0 0 C2.58137192 0.25813719 3.80661915 0.82733852 5.75 2.5625 C7.52369035 6.02119619 7.6867102 9.23802238 7 13 C4.8755173 16.44312714 3.85147359 17.71617547 0 19 C0.33 17.68 0.66 16.36 1 15 C1.66 15 2.32 15 3 15 C3.67277818 8.26118089 3.67277818 8.26118089 1 2.375 C0.34 1.92125 -0.32 1.4675 -1 1 C-0.67 0.67 -0.34 0.34 0 0 Z " fill="#1C1C1C" transform="translate(299,329)"/>
<path d="M0 0 C2.875 -0.125 2.875 -0.125 6 0 C6.66 0.66 7.32 1.32 8 2 C7.44444444 6.55555556 7.44444444 6.55555556 6 8 C4.00041636 8.04080783 1.99954746 8.04254356 0 8 C0 5.36 0 2.72 0 0 Z " fill="#E5E5E5" transform="translate(391,330)"/>
<path d="M0 0 C1.62463842 -0.05395478 3.24978541 -0.09277195 4.875 -0.125 C5.77992188 -0.14820313 6.68484375 -0.17140625 7.6171875 -0.1953125 C10 0 10 0 12 2 C12.125 5.125 12.125 5.125 12 8 C10.02 8.99 10.02 8.99 8 10 C8.185625 8.865625 8.37125 7.73125 8.5625 6.5625 C8.706875 5.386875 8.85125 4.21125 9 3 C7.03177114 1.03177114 3.65191291 1.33751619 1 1 C1 3.64 1 6.28 1 9 C0.67 9 0.34 9 0 9 C0 6.03 0 3.06 0 0 Z " fill="#030303" transform="translate(389,329)"/>
<path d="M0 0 C1.625 1.6875 1.625 1.6875 3 4 C2.29993731 7.58782126 1.39423174 8.72779237 -1.625 10.8125 C-2.40875 11.204375 -3.1925 11.59625 -4 12 C-3.67 10.68 -3.34 9.36 -3 8 C-2.34 8 -1.68 8 -1 8 C-0.67 5.36 -0.34 2.72 0 0 Z " fill="#292929" transform="translate(303,336)"/>
<path d="M0 0 C0.53625 0.639375 1.0725 1.27875 1.625 1.9375 C4.44367193 4.38529404 6.33860732 4.66714612 10 5 C10 5.66 10 6.32 10 7 C3.6 7.49230769 3.6 7.49230769 0.5625 5 C0.046875 4.34 -0.46875 3.68 -1 3 C-0.67 2.01 -0.34 1.02 0 0 Z " fill="#141414" transform="translate(289,341)"/>
</svg>
